<?xml version="1.0" encoding="iso-8859-1"?>
<!-- Uploaded to: SVG Repo, www.svgrepo.com, Generator: SVG Repo Mixer Tools -->
<svg fill="#000000" version="1.1" id="Capa_1" xmlns="http://www.w3.org/2000/svg" xmlns:xlink="http://www.w3.org/1999/xlink" 
	 viewBox="0 0 33.33 33.33" xml:space="preserve">
<g>
	<path d="M33.33,9.538V8.797h-1.239h-1.136h-16.21V4.851h-1.516v1.231H2.438V4.851H0.923v24.047h1.515v1.851h10.791v-1.851h1.516
		v-2.972h16.21h1.136h1.239V25.01h-1.575v-1.843h1.575v-1.139h-0.775v-9.334h0.775v-1.315h-1.611v-1.84H33.33z M28.448,9.503h1.846
		v1.843h-1.846V9.503z M24.857,9.503h1.846v1.843h-1.846V9.503z M21.11,9.503h1.846v1.843H21.11V9.503z M17.208,9.503h1.845v1.843
		h-1.845V9.503z M15.305,9.503v1.843h-0.56V9.503H15.305z M2.438,10.861H4.16v14.462H2.438V10.861z M15.305,24.956h-0.56v-1.845
		h0.56V24.956z M19.053,24.956h-1.845v-1.845h1.845V24.956z M20.894,22.004h-6.149v-9.55h6.149V22.004z M22.956,24.956H21.11v-1.845
		h1.846C22.956,23.111,22.956,24.956,22.956,24.956z M26.703,24.956h-1.846v-1.845h1.846V24.956z M30.294,24.956h-1.846v-1.845
		h1.846V24.956z M30.447,22.004h-7.586v-9.55h7.586V22.004z"/>
	<rect x="0" y="2.582" width="15.667" height="2.687"/>
	<g>
	</g>
	<g>
	</g>
	<g>
	</g>
	<g>
	</g>
	<g>
	</g>
	<g>
	</g>
	<g>
	</g>
	<g>
	</g>
	<g>
	</g>
	<g>
	</g>
	<g>
	</g>
	<g>
	</g>
	<g>
	</g>
	<g>
	</g>
	<g>
	</g>
</g>
</svg>